<?xml version="1.0" standalone="no"?>
<!DOCTYPE svg PUBLIC "-//W3C//DTD SVG 20010904//EN"
 "http://www.w3.org/TR/2001/REC-SVG-20010904/DTD/svg10.dtd">
<svg version="1.0" xmlns="http://www.w3.org/2000/svg"
 width="500.000000pt" height="500.000000pt" viewBox="0 0 500.000000 500.000000"
 preserveAspectRatio="xMidYMid meet">
<metadata>
Created by potrace 1.14, written by Peter Selinger 2001-2017
</metadata>
<g transform="translate(0.000000,500.000000) scale(0.100000,-0.100000)"
fill="#000000" stroke="none">
<path d="M2357 4994 c-1 -1 -33 -4 -72 -8 -477 -44 -915 -218 -1305 -516 -89
-68 -390 -360 -390 -378 0 -7 510 -880 670 -1147 26 -44 58 -98 70 -120 12
-22 60 -104 107 -182 l84 -143 -120 -202 c-65 -112 -127 -217 -137 -235 -146
-253 -249 -421 -254 -418 -3 2 -26 37 -50 77 -23 40 -156 262 -294 493 -138
231 -256 429 -262 440 -12 22 -257 436 -282 474 -15 24 -15 24 -23 5 -6 -18
-38 -169 -54 -259 -15 -83 -20 -190 -19 -395 0 -243 14 -369 60 -555 14 -55
27 -108 29 -117 7 -34 67 -205 86 -245 10 -24 19 -45 19 -49 0 -12 119 -242
160 -309 91 -149 195 -285 327 -426 86 -91 261 -245 348 -304 48 -33 57 -37
69 -24 9 10 843 1425 911 1547 29 51 147 253 217 369 l79 132 -201 340 c-110
187 -208 355 -219 373 -10 18 -108 186 -218 373 -110 187 -205 350 -211 362
-11 20 -6 25 68 73 147 93 332 177 482 216 70 18 80 20 158 33 30 6 71 13 90
16 60 11 352 14 425 5 257 -32 439 -91 690 -223 132 -70 350 -248 467 -382
l79 -90 -719 -5 -720 -5 194 -330 c107 -181 198 -337 202 -345 8 -13 135 -15
1041 -16 l1031 -1 0 26 c0 21 -32 173 -55 261 -30 117 -114 328 -183 460 -248
479 -627 852 -1112 1095 -186 94 -399 171 -550 199 -14 2 -45 9 -70 15 -57 13
-156 28 -240 37 -58 6 -397 13 -403 8z"/>
<path d="M2854 2012 c-32 -53 -97 -164 -146 -245 -48 -82 -88 -153 -88 -158 0
-5 -4 -9 -10 -9 -5 0 -10 -4 -10 -10 0 -5 -17 -38 -38 -72 -21 -35 -44 -73
-50 -85 l-12 -21 698 -1 c383 0 708 0 720 -1 23 0 21 -3 -19 -52 -109 -132
-339 -331 -443 -385 -17 -9 -33 -19 -36 -23 -9 -12 -184 -96 -268 -129 -84
-32 -282 -87 -350 -96 -97 -14 -177 -19 -282 -19 -109 0 -277 11 -290 19 -4 2
-29 7 -56 11 -27 3 -52 8 -55 10 -4 2 -33 -40 -64 -94 -32 -53 -65 -108 -74
-122 -9 -14 -22 -36 -28 -50 -7 -14 -23 -41 -35 -61 -66 -106 -170 -291 -165
-295 2 -2 13 -6 23 -9 11 -2 51 -13 89 -24 65 -18 234 -53 315 -65 169 -25
538 -26 650 -1 14 3 47 7 73 10 274 29 704 195 977 378 342 229 614 518 804
857 125 223 235 513 270 715 3 17 9 51 14 77 l9 46 -1033 1 -1034 0 -56 -97z"/>
</g>
</svg>
